<svg xmlns="http://www.w3.org/2000/svg" xmlns:xlink="http://www.w3.org/1999/xlink" viewBox="0,0,256,256" width="80px" height="80px"><g fill="none" fill-rule="nonzero" stroke="none" stroke-width="1" stroke-linecap="butt" stroke-linejoin="miter" stroke-miterlimit="10" stroke-dasharray="" stroke-dashoffset="0" font-family="none" font-weight="none" font-size="none" text-anchor="none" style="mix-blend-mode: normal"><g transform="scale(6.4,6.4)"><path d="M5.982,29.309l2.589,-2.59l5.047,4.396l-2.903,2.904l-8.262,3.528z" fill="#2a579b"></path><path d="M8.595,27.403l4.291,3.737l-2.457,2.457l-7.026,3.001l3.001,-7.003l2.191,-2.192M8.548,26.036l-2.988,2.988l-4.059,9.474l9.499,-4.058l3.351,-3.351l-5.803,-5.053z" fill="#000000"></path><path d="M3.805,33.13l-2.301,5.37l5.384,-2.299z" fill="#000000"></path><path d="M30.062,5.215l2.238,-2.237c0.631,-0.631 1.469,-0.978 2.36,-0.978c0.891,0 1.729,0.347 2.36,0.978c1.302,1.302 1.302,3.419 0,4.721l-2.237,2.237z" fill="#44a4ec"></path><path d="M34.66,2.5c0.758,0 1.471,0.295 2.007,0.831c1.107,1.107 1.107,2.907 0,4.014l-1.884,1.884l-4.013,-4.014l1.884,-1.884c0.535,-0.536 1.248,-0.831 2.006,-0.831M34.66,1.5c-0.982,0 -1.965,0.375 -2.714,1.124l-2.591,2.591l5.428,5.428l2.591,-2.591c1.499,-1.499 1.499,-3.929 0,-5.428v0c-0.749,-0.749 -1.731,-1.124 -2.714,-1.124z" fill="#000000"></path><g><path d="M11.346,33.388c-0.066,-0.153 -0.157,-0.308 -0.282,-0.454c-0.31,-0.363 -0.749,-0.584 -1.31,-0.661c-0.2,-1.267 -1.206,-1.803 -1.989,-1.964c-0.132,-0.864 -0.649,-1.342 -1.201,-1.582l21.49,-21.503l4.721,4.721z" fill="#44a4ec"></path><path d="M28.054,7.931l4.014,4.014l-20.637,20.649c-0.242,-0.278 -0.638,-0.59 -1.261,-0.748c-0.306,-1.078 -1.155,-1.685 -1.983,-1.943c-0.151,-0.546 -0.447,-0.968 -0.821,-1.272l20.688,-20.7M28.053,6.517l-22.493,22.506c0,0 0.007,0 0.021,0c0.197,0 1.715,0.054 1.715,1.731c0,0 1.993,0.062 1.993,1.99c1.982,0 1.71,1.697 1.71,1.697l22.482,-22.495l-5.428,-5.429z" fill="#000000"></path></g><g><path transform="translate(3.61479,24.93093) rotate(-45.009)" d="M29.107,4.764h5.578v6.677h-5.578z" fill="#2a579b"></path><path d="M31.507,4.477l4.014,4.014l-3.237,3.237l-4.014,-4.014l3.237,-3.237M31.507,3.063l-4.651,4.651l5.428,5.428l4.651,-4.651l-5.428,-5.428z" fill="#000000"></path></g></g></g></svg>